<svg xmlns="http://www.w3.org/2000/svg" viewBox="0 0 100 100">
  <g fill="#7FB0DE" stroke="#31538A" stroke-width="1">
    <path d="M50,50 C41,37 39,18 50,6 C61,18 59,37 50,50 Z"/>
    <path d="M50,50 C41,37 39,18 50,6 C61,18 59,37 50,50 Z" transform="rotate(72 50 50)"/>
    <path d="M50,50 C41,37 39,18 50,6 C61,18 59,37 50,50 Z" transform="rotate(144 50 50)"/>
    <path d="M50,50 C41,37 39,18 50,6 C61,18 59,37 50,50 Z" transform="rotate(216 50 50)"/>
    <path d="M50,50 C41,37 39,18 50,6 C61,18 59,37 50,50 Z" transform="rotate(288 50 50)"/>
  </g>
  <circle cx="50" cy="50" r="6" fill="#B79B5B"/>
</svg>
